<svg width="325" height="371" xmlns="http://www.w3.org/2000/svg" xmlns:xlink="http://www.w3.org/1999/xlink" overflow="hidden"><defs><clipPath id="clip0"><rect x="757" y="196" width="325" height="371"/></clipPath></defs><g clip-path="url(#clip0)" transform="translate(-757 -196)"><path d="M939.178 235.066 919.25 359.904 899.84 235.068 844.546 235.068 844.546 476.689 888.089 476.689 888.089 360.228 907.896 476.686 931.045 476.686 950.573 360.228 950.573 476.686 994.425 476.686C994.439 355.876 994.439 355.876 994.454 235.066ZM795.837 196 1043.16 196C1064.02 196 1081 213.02 1081 234.11L1081 566 1041.32 530.85 1018.98 510.13 995.359 488.115 1005.14 522.34 795.837 522.34C774.981 522.34 758 505.32 758 484.23L758 234.11C758 213.02 774.981 196 795.837 196Z" fill="#ED1D24" fill-rule="evenodd"/></g></svg>