<svg width="760" height="869" viewBox="0 0 760 869" fill="none" xmlns="http://www.w3.org/2000/svg">
<path fill-rule="evenodd" clip-rule="evenodd" d="M89.9102 1H671.09C720.1 1 760 40.9299 760 90.3999V869L666.75 786.54L614.27 737.93L558.76 686.29L581.74 766.58H89.9102C40.9002 766.58 1 726.65 1 677.17V90.3999C1 40.9299 40.9002 1 89.9102 1Z" fill="white"/>
<path fill-rule="evenodd" clip-rule="evenodd" d="M426.47 92.5798L379.64 385.44L334.03 92.5798H204.09V659.41H306.41V386.2L352.96 659.4H407.35L453.24 386.2V659.4H556.29C556.32 375.99 556.32 375.99 556.36 92.5798H426.47ZM89.6401 0.929688H670.81C719.83 0.929688 759.73 40.8598 759.73 90.3298V868.93L666.48 786.47L613.99 737.86L558.48 686.22L581.47 766.51H89.6401C40.6301 766.51 0.72998 726.58 0.72998 677.1V90.3298C0.72998 40.8598 40.6301 0.929688 89.6401 0.929688Z" fill="#ED1D24"/>
</svg>
